# xmcd
#
# Track frame offsets:
#	150
#	20157
#	32767
#	46401
#	58510
#	73435
#	86262
#	98516
#	112396
#	129788
#	141030
#	152727
#	169079
#	185199
#	199381
#	210378
#	219050
#	227609
#	242084
#	257328
#	271493
#
# Disc length: 3893 seconds
#
# Revision: 1
# Processed by: cddbd v1.5.2PL0 Copyright (c) Steve Scherf et al.
# Submitted via: audiograbber 1.83.01
#
DISCID=2c0f3315
DTITLE=Billie Jo Spears - I'll Take A Melody
DYEAR=1998
DGENRE=Country
TTITLE0=I'll Take A Melody
TTITLE1=Sunshine
TTITLE2=Fever
TTITLE3=My Own Kind
TTITLE4=Midnight Love
TTITLE5=You've Got The Power
TTITLE6=You Never Can Tell (C'est La Vie)
TTITLE7=Mr. Walker, It's All Over
TTITLE8=For The Good Times
TTITLE9=Here You Come Again
TTITLE10=Silver Threads And Golden Needles
TTITLE11=Fire And Rain
TTITLE12=Queen Of The Silver Dollar
TTITLE13=Blue Bayou
TTITLE14=All I Have To Do Is Dream
TTITLE15=Blue Blue Day
TTITLE16=Rocky Top
TTITLE17=Cryin' Time
TTITLE18=It's A Heartache
TTITLE19=I'll Never Love This Way Again
TTITLE20=Just The Way You Are
EXTD=
EXTT0=
EXTT1=
EXTT2=
EXTT3=
EXTT4=
EXTT5=
EXTT6=
EXTT7=
EXTT8=
EXTT9=
EXTT10=
EXTT11=
EXTT12=
EXTT13=
EXTT14=
EXTT15=
EXTT16=
EXTT17=
EXTT18=
EXTT19=
EXTT20=
PLAYORDER=
